ply
format ascii 1.0
element vertex 24
property float x
property float y
property float z
property uchar red
property uchar green
property uchar blue
end_header
0 0 0 255 128 0
0 1 0 255 128 0
0 2 0 255 128 0
0 3 0 255 128 0
0 4 0 255 128 0
1 3 0 0 128 255
2 2 0 0 128 255
3 3 0 0 128 255
4 4 0 0 128 255
4 3 0 255 128 0
4 2 0 255 128 0
4 1 0 255 128 0
4 0 0 255 128 0
0 4 1 128 0 0
0 4 2 128 0 0
0 4 3 128 0 0
0 2 1 128 0 0
0 2 2 128 0 0
0 2 3 128 0 0
0 0 4 255 128 0
0 1 4 255 128 0
0 2 4 255 128 0
0 3 4 255 128 0
0 4 4 255 128 0
